<svg width="78" height="72" viewBox="0 0 78 72" fill="none" xmlns="http://www.w3.org/2000/svg">
<path d="M25.1817 18.8257C40.4593 10.3312 51.2961 17.4007 54.8048 21.9973C58.6778 27.3317 60.0355 30.414 60.2302 31.2884C61.198 36.2229 59.4154 48.3728 44.5424 57.4962C29.6694 66.6196 18.6591 60.9954 15.0131 57.0428C13.7915 56.0698 10.9182 52.8994 9.19747 48.0027C8.1599 41.8164 9.90417 27.3202 25.1817 18.8257Z" fill="#7361CE"/>
<path d="M42.5468 24.3391C42.2675 23.905 42.3905 23.3283 42.8215 23.051C43.2525 22.7737 43.8283 22.9009 44.1076 23.335C44.3869 23.7692 44.2639 24.3459 43.8329 24.6231C43.4019 24.9004 42.8261 24.7732 42.5468 24.3391Z" fill="#B1A5F2"/>
<path d="M35.8439 24.2061C35.5646 23.772 35.6875 23.1953 36.1185 22.9181C36.5494 22.6409 37.1252 22.7681 37.4045 23.2022C37.6837 23.6363 37.5608 24.213 37.1299 24.4902C36.6989 24.7675 36.1232 24.6403 35.8439 24.2061Z" fill="#B1A5F2"/>
<path d="M37.9521 20.6247C37.6728 20.1905 37.7958 19.6138 38.2268 19.3366C38.6577 19.0593 39.2336 19.1865 39.5128 19.6206C39.7921 20.0548 39.6692 20.6315 39.2382 20.9088C38.8072 21.186 38.2314 21.0588 37.9521 20.6247Z" fill="#B1A5F2"/>
<path d="M42.5917 20.9777C42.3125 20.5436 42.4354 19.9669 42.8664 19.6896C43.2974 19.4124 43.8732 19.5395 44.1525 19.9737C44.4318 20.4078 44.3088 20.9845 43.8778 21.2618C43.4468 21.5391 42.871 21.4119 42.5917 20.9777Z" fill="#B1A5F2"/>
<path d="M31.1631 27.2175C30.8838 26.7833 31.0068 26.2066 31.4377 25.9294C31.8687 25.6521 32.4445 25.7793 32.7238 26.2134C33.0031 26.6476 32.8801 27.2243 32.4491 27.5015C32.0182 27.7788 31.4424 27.6516 31.1631 27.2175Z" fill="#B1A5F2"/>
<path d="M31.4815 22.567C31.2022 22.1328 31.3251 21.5561 31.7561 21.2789C32.187 21.0016 32.7628 21.1288 33.0421 21.563C33.3214 21.9972 33.1985 22.5739 32.7675 22.8511C32.3366 23.1283 31.7608 23.0011 31.4815 22.567Z" fill="#B1A5F2"/>
<path d="M37.3408 28.2468C36.9218 27.5955 37.1063 26.7305 37.7527 26.3146C38.3992 25.8987 39.2629 26.0895 39.6819 26.7407C40.1008 27.392 39.9164 28.2571 39.2699 28.6729C38.6234 29.0888 37.7597 28.898 37.3408 28.2468Z" fill="#B1A5F2"/>
<path d="M25.7637 25.6902C25.3447 25.039 25.5292 24.1739 26.1757 23.758C26.8221 23.3422 27.6858 23.5329 28.1047 24.1842C28.5237 24.8354 28.3392 25.7004 27.6928 26.1163C27.0463 26.5322 26.1826 26.3414 25.7637 25.6902Z" fill="#B1A5F2"/>
<path d="M46.9345 24.2952C46.5156 23.644 46.7001 22.7789 47.3465 22.363C47.993 21.9471 48.8567 22.1379 49.2756 22.7891C49.6946 23.4403 49.5101 24.3054 48.8636 24.7213C48.2172 25.1372 47.3535 24.9464 46.9345 24.2952Z" fill="#B1A5F2"/>
<path d="M55.082 23.9085C57.4511 22.4278 62.5447 18.5781 63.9661 15.0244" stroke="#3D3D3D" stroke-width="2" stroke-linecap="round"/>
</svg>
